# xmcd CD database file
#
# Track frame offsets:
#	150
#	15663
#	30935
#	48363
#	61968
#	79427
#	94649
#	114547
#	129857
#	148572
#	171969
#
# Disc length: 2591 seconds
#
# Revision: 0
# Processed by: cddbd v1.5.2PL0 Copyright (c) Steve Scherf et al.
# Submitted via: CDex 1.70beta2
#
DISCID=860a1d0b
DTITLE=Trisha Yearwood - Where Your Road Leads
DYEAR=2004
DGENRE=Country
TTITLE0=There Goes My Baby
TTITLE1=Never Let You Go Again
TTITLE2=That Aint The Way I Heard It
TTITLE3=Powerful Thing
TTITLE4=Love Wouldn't Lie To Me
TTITLE5=Wouldn't Any Woman
TTITLE6=I'll Still Love You More
TTITLE7=Heart Like A Sad Song
TTITLE8=I Don't Want To Be The One
TTITLE9=Bring Me All Your Lovin'
TTITLE10=Where Your Road Leads
EXTD=YEAR: 2004
EXTT0=
EXTT1=
EXTT2=
EXTT3=
EXTT4=
EXTT5=
EXTT6=
EXTT7=
EXTT8=
EXTT9=
EXTT10=
PLAYORDER=
